<svg width="16" height="14" viewBox="0 0 16 14" fill="none" xmlns="http://www.w3.org/2000/svg">
<path d="M2.8 11.5375H13.2C13.42 11.5375 13.6 11.7162 13.6 11.9347V12.7291C13.6 12.9475 13.42 13.1263 13.2 13.1263H2.8C2.58 13.1263 2.4 12.9475 2.4 12.7291V11.9347C2.4 11.7162 2.58 11.5375 2.8 11.5375ZM1.2 3.59335C1.8625 3.59335 2.4 4.1271 2.4 4.78497C2.4 4.96123 2.36 5.12508 2.29 5.27651L4.1 6.35393C4.485 6.58232 4.9825 6.45323 5.205 6.06596L7.2425 2.52586C6.975 2.3074 6.8 1.97971 6.8 1.60733C6.8 0.949455 7.3375 0.41571 8 0.41571C8.6625 0.41571 9.2 0.949455 9.2 1.60733C9.2 1.97971 9.025 2.3074 8.7575 2.52586L10.795 6.06596C11.0175 6.45323 11.5175 6.58232 11.9 6.35393L13.7075 5.27651C13.64 5.12756 13.5975 4.96123 13.5975 4.78497C13.5975 4.1271 14.135 3.59335 14.7975 3.59335C15.46 3.59335 16 4.1271 16 4.78497C16 5.44284 15.4625 5.97659 14.8 5.97659C14.735 5.97659 14.67 5.96666 14.6075 5.95673L12.8 10.743H3.2L1.3925 5.95673C1.33 5.96666 1.265 5.97659 1.2 5.97659C0.5375 5.97659 0 5.44284 0 4.78497C0 4.1271 0.5375 3.59335 1.2 3.59335Z" fill="black"/>
</svg>
