<svg width="16" height="17" viewBox="0 0 16 17" fill="none" xmlns="http://www.w3.org/2000/svg">
<path d="M8 0.248779C3.58885 0.248779 0 3.9551 0 8.51065C0 13.0662 3.58885 16.7725 8 16.7725C12.4112 16.7725 16 13.0662 16 8.51065C16 3.9551 12.4112 0.248779 8 0.248779ZM13.5 12.3238H11.7608C11.7069 12.3237 11.654 12.309 11.6073 12.2811C11.5607 12.2532 11.5219 12.2131 11.495 12.1649L10.8742 11.0655C10.8334 10.9936 10.8215 10.908 10.8412 10.8272L11.4127 8.4471C11.4242 8.39914 11.4463 8.35461 11.4773 8.31703C11.5084 8.27945 11.5475 8.24987 11.5915 8.23062L12.6723 7.75795C12.7251 7.73482 12.7831 7.7274 12.8398 7.73652C12.8965 7.74565 12.9496 7.77095 12.9931 7.80958L14.5942 9.23237C14.6337 9.26747 14.6639 9.31234 14.682 9.36277C14.7001 9.41321 14.7055 9.46756 14.6977 9.52074C14.5651 10.4603 14.2473 11.3617 13.7638 12.1693C13.7365 12.2164 13.6979 12.2554 13.6516 12.2825C13.6054 12.3096 13.5532 12.3238 13.5 12.3238ZM3.32769 7.76112L4.40846 8.2338C4.45251 8.25304 4.49161 8.28263 4.52266 8.32021C4.55371 8.35778 4.57584 8.40232 4.58731 8.45028L5.15885 10.8303C5.17852 10.9112 5.16664 10.9968 5.12577 11.0687L4.505 12.1649C4.47805 12.2131 4.43932 12.2532 4.39268 12.2811C4.34604 12.309 4.29312 12.3237 4.23923 12.3238H2.5C2.4474 12.3239 2.39567 12.31 2.34974 12.2835C2.30382 12.257 2.26524 12.2188 2.23769 12.1725C1.75429 11.3649 1.43645 10.4634 1.30385 9.52392C1.29605 9.47074 1.30145 9.41639 1.31955 9.36595C1.33764 9.31551 1.36784 9.27065 1.40731 9.23555L3.00846 7.81276C3.0518 7.77443 3.10461 7.7493 3.16099 7.74018C3.21736 7.73106 3.27508 7.73832 3.32769 7.76112ZM13.21 4.2959L12.515 6.33675C12.501 6.37845 12.4788 6.4167 12.4497 6.44905C12.4207 6.48139 12.3854 6.50713 12.3462 6.52462L11.2085 7.02232C11.1563 7.04513 11.099 7.0526 11.0429 7.04391C10.9868 7.03522 10.9342 7.0107 10.8908 6.97307L8.72692 5.09866C8.69235 5.06911 8.66445 5.03212 8.64518 4.99026C8.62591 4.94841 8.61574 4.9027 8.61539 4.85636V3.52255C8.61542 3.47028 8.62793 3.41884 8.65181 3.37276C8.67569 3.32669 8.71021 3.28741 8.75231 3.2584L10.3996 2.12478C10.4426 2.09515 10.4921 2.07717 10.5436 2.07252C10.5951 2.06787 10.6469 2.07669 10.6942 2.09817C11.6421 2.52511 12.4833 3.16954 13.1538 3.98251C13.1891 4.02501 13.2129 4.07638 13.2227 4.13141C13.2326 4.18644 13.2282 4.24319 13.21 4.2959ZM5.6 2.12478L7.24769 3.2584C7.28979 3.28741 7.32431 3.32669 7.34819 3.37276C7.37207 3.41884 7.38459 3.47028 7.38462 3.52255V4.85636C7.38461 4.90278 7.37476 4.94864 7.35576 4.9907C7.33676 5.03277 7.30906 5.07002 7.27462 5.09985L5.11077 6.97426C5.06735 7.0119 5.0147 7.03641 4.95864 7.0451C4.90258 7.0538 4.84529 7.04632 4.79308 7.02351L3.65385 6.52462C3.61437 6.50736 3.57881 6.48176 3.54947 6.44948C3.52013 6.41719 3.49765 6.37893 3.48346 6.33714L2.78846 4.2963C2.7704 4.24339 2.76623 4.18649 2.77636 4.13138C2.78649 4.07626 2.81057 4.0249 2.84615 3.98251C3.51712 3.16872 4.35898 2.52372 5.30769 2.09658C5.35483 2.07576 5.40626 2.06743 5.45731 2.07235C5.50836 2.07728 5.55741 2.0953 5.6 2.12478ZM6.26577 15.1317L5.50692 13.158C5.48957 13.1131 5.48235 13.0647 5.48582 13.0165C5.48928 12.9684 5.50334 12.9216 5.52692 12.8799L6.11038 11.8472C6.13733 11.799 6.17606 11.7589 6.2227 11.731C6.26935 11.7032 6.32226 11.6884 6.37615 11.6883H9.62385C9.67774 11.6884 9.73065 11.7032 9.7773 11.731C9.82394 11.7589 9.86267 11.799 9.88962 11.8472L10.4735 12.8799C10.4971 12.9216 10.5112 12.9683 10.5148 13.0165C10.5183 13.0647 10.5111 13.1131 10.4938 13.158L9.74039 15.1309C9.72196 15.1791 9.69238 15.222 9.65423 15.2557C9.61609 15.2894 9.57053 15.313 9.52154 15.3243C8.52172 15.5613 7.4829 15.5613 6.48308 15.3243C6.43445 15.3128 6.38926 15.2893 6.3514 15.2557C6.31354 15.2221 6.28415 15.1796 6.26577 15.1317Z" fill="black"/>
</svg>
