<svg width="16" height="26" viewBox="0 0 16 26" fill="none" xmlns="http://www.w3.org/2000/svg">
<path d="M12.8513 2.90916C12.8513 3.56829 12.5977 4.20043 12.1464 4.6665C11.6951 5.13258 11.083 5.39442 10.4448 5.39442C9.80652 5.39442 9.19442 5.13258 8.74311 4.6665C8.29181 4.20043 8.03827 3.56829 8.03827 2.90916C8.03827 2.25002 8.29181 1.61788 8.74311 1.15181C9.19442 0.685729 9.80652 0.423889 10.4448 0.423889C11.083 0.423889 11.6951 0.685729 12.1464 1.15181C12.5977 1.61788 12.8513 2.25002 12.8513 2.90916ZM12.8513 18.6492C12.4258 18.6492 12.0177 18.8237 11.7168 19.1345C11.416 19.4452 11.2469 19.8666 11.2469 20.306C11.2469 20.7454 11.416 21.1669 11.7168 21.4776C12.0177 21.7883 12.4258 21.9629 12.8513 21.9629C13.2768 21.9629 13.6848 21.7883 13.9857 21.4776C14.2866 21.1669 14.4556 20.7454 14.4556 20.306C14.4556 19.8666 14.2866 19.4452 13.9857 19.1345C13.6848 18.8237 13.2768 18.6492 12.8513 18.6492ZM15.8032 10.5141L12.739 7.3495C12.6676 7.25745 12.5773 7.18295 12.4747 7.13137C12.372 7.07979 12.2595 7.05243 12.1454 7.05127H0.818779C0.606032 7.05127 0.401998 7.13855 0.251563 7.29391C0.101128 7.44927 0.0166141 7.65998 0.0166141 7.87969C0.0166141 8.0994 0.101128 8.31011 0.251563 8.46547C0.401998 8.62083 0.606032 8.70811 0.818779 8.70811H5.15047L0.0166141 19.1462C-0.00553803 19.2555 -0.00553803 19.3683 0.0166141 19.4776C-0.0234746 19.6954 0.0207848 19.9208 0.13988 20.1053C0.258976 20.2898 0.443402 20.4187 0.653524 20.4643C0.863647 20.5098 1.08269 20.4684 1.26359 20.349C1.44449 20.2296 1.5728 20.0416 1.62094 19.8255L3.22528 16.9923H6.43394L3.33758 24.0174C3.26193 24.1473 3.22302 24.2965 3.22528 24.4481C3.18739 24.6659 3.23371 24.8903 3.35428 25.0732C3.47485 25.256 3.66006 25.3828 3.87012 25.4262C4.08019 25.4695 4.29835 25.4261 4.47775 25.3052C4.65715 25.1843 4.78348 24.9956 4.82961 24.7795L12.37 9.2383L14.6802 11.6904C14.8346 11.8251 15.0325 11.8946 15.2343 11.8851C15.4362 11.8756 15.6272 11.7878 15.7691 11.6392C15.9109 11.4906 15.9933 11.2921 15.9996 11.0835C16.0059 10.875 15.9358 10.6716 15.8032 10.5141Z" fill="black"/>
</svg>
